{
	"asset":{
		"generator":"Khronos glTF Blender I/O v3.6.27",
		"version":"2.0"
	},
	"extensionsUsed":[
		"KHR_materials_specular",
		"KHR_materials_ior"
	],
	"scene":0,
	"scenes":[
		{
			"name":"Scene",
			"nodes":[
				0
			]
		}
	],
	"nodes":[
		{
			"mesh":0,
			"name":"Cover",
			"scale":[
				1,
				0.885937511920929,
				1
			],
			"translation":[
				0,
				-0.0016133880708366632,
				0.7502018213272095
			]
		}
	],
	"animations":[
		{
			"channels":[
				{
					"sampler":0,
					"target":{
						"node":0,
						"path":"weights"
					}
				}
			],
			"name":"KeyAction",
			"samplers":[
				{
					"input":6,
					"interpolation":"LINEAR",
					"output":7
				}
			]
		}
	],
	"materials":[
		{
			"doubleSided":true,
			"extensions":{
				"KHR_materials_specular":{
					"specularColorFactor":[
						0,
						0,
						0
					]
				},
				"KHR_materials_ior":{
					"ior":1.4500000476837158
				}
			},
			"name":"Material.005",
			"pbrMetallicRoughness":{
				"baseColorTexture":{
					"index":0
				},
				"metallicFactor":0
			}
		}
	],
	"meshes":[
		{
			"extras":{
				"targetNames":[
					"expansion"
				]
			},
			"name":"Plane",
			"primitives":[
				{
					"attributes":{
						"POSITION":0,
						"NORMAL":1,
						"TEXCOORD_0":2
					},
					"indices":3,
					"material":0,
					"targets":[
						{
							"POSITION":4,
							"NORMAL":5
						}
					]
				}
			],
			"weights":[
				1
			]
		}
	],
	"textures":[
		{
			"sampler":0,
			"source":0
		}
	],
	"images":[
		{
			"bufferView":4,
			"mimeType":"image/png",
			"name":"cover"
		}
	],
	"accessors":[
		{
			"bufferView":0,
			"componentType":5126,
			"count":176,
			"max":[
				0.7713969349861145,
				1.20779550075531,
				0.24979817867279053
			],
			"min":[
				-0.7713969349861145,
				-0.004568655975162983,
				-0.35088911652565
			],
			"type":"VEC3"
		},
		{
			"bufferView":1,
			"componentType":5126,
			"count":176,
			"type":"VEC3"
		},
		{
			"bufferView":2,
			"componentType":5126,
			"count":176,
			"type":"VEC2"
		},
		{
			"bufferView":3,
			"componentType":5123,
			"count":288,
			"type":"SCALAR"
		},
		{
			"bufferView":5,
			"componentType":5126,
			"count":176,
			"max":[
				0.46953055262565613,
				0.015005324967205524,
				0.0064740777015686035
			],
			"min":[
				-0.46953055262565613,
				-0.8525614738464355,
				-0.18279170989990234
			],
			"type":"VEC3"
		},
		{
			"bufferView":6,
			"componentType":5126,
			"count":176,
			"type":"VEC3"
		},
		{
			"bufferView":7,
			"componentType":5126,
			"count":61,
			"max":[
				2.5
			],
			"min":[
				0
			],
			"type":"SCALAR"
		},
		{
			"bufferView":8,
			"componentType":5126,
			"count":61,
			"type":"SCALAR"
		}
	],
	"bufferViews":[
		{
			"buffer":0,
			"byteLength":2112,
			"byteOffset":0,
			"target":34962
		},
		{
			"buffer":0,
			"byteLength":2112,
			"byteOffset":2112,
			"target":34962
		},
		{
			"buffer":0,
			"byteLength":1408,
			"byteOffset":4224,
			"target":34962
		},
		{
			"buffer":0,
			"byteLength":576,
			"byteOffset":5632,
			"target":34963
		},
		{
			"buffer":0,
			"byteLength":21813,
			"byteOffset":6208
		},
		{
			"buffer":0,
			"byteLength":2112,
			"byteOffset":28024,
			"target":34962
		},
		{
			"buffer":0,
			"byteLength":2112,
			"byteOffset":30136,
			"target":34962
		},
		{
			"buffer":0,
			"byteLength":244,
			"byteOffset":32248
		},
		{
			"buffer":0,
			"byteLength":244,
			"byteOffset":32492
		}
	],
	"samplers":[
		{
			"magFilter":9729,
			"minFilter":9987
		}
	],
	"buffers":[
		{
			"byteLength":32736,
			"uri":"data:application/octet-stream;base64,"
		}
	]
}
